<svg xmlns="http://www.w3.org/2000/svg" viewBox="0 0 512 512" fill="none" role="img" aria-labelledby="title">
  <title id="title">Zed OS Technologies Limited</title>
  <defs>
    <linearGradient id="bg" x1="72" y1="64" x2="448" y2="448" gradientUnits="userSpaceOnUse">
      <stop offset="0" stop-color="#0D1B2A" />
      <stop offset="1" stop-color="#183860" />
    </linearGradient>
    <linearGradient id="glow" x1="154" y1="138" x2="362" y2="374" gradientUnits="userSpaceOnUse">
      <stop offset="0" stop-color="#4A9FD4" stop-opacity="0.28" />
      <stop offset="1" stop-color="#2A6DB5" stop-opacity="0.06" />
    </linearGradient>
    <linearGradient id="accent" x1="180" y1="184" x2="332" y2="320" gradientUnits="userSpaceOnUse">
      <stop offset="0" stop-color="#4A9FD4" />
      <stop offset="1" stop-color="#2A6DB5" />
    </linearGradient>
    <filter id="shadow" x="-20%" y="-20%" width="140%" height="140%">
      <feDropShadow dx="0" dy="16" stdDeviation="18" flood-color="#06111D" flood-opacity="0.34" />
    </filter>
  </defs>
  <rect width="512" height="512" rx="124" fill="url(#bg)" />
  <circle cx="128" cy="120" r="88" fill="#2A6DB5" opacity="0.16" />
  <circle cx="396" cy="388" r="116" fill="#4A9FD4" opacity="0.12" />
  <rect x="92" y="92" width="328" height="328" rx="92" fill="url(#glow)" filter="url(#shadow)" />
  <rect x="112" y="112" width="288" height="288" rx="76" fill="#0F2236" stroke="url(#accent)" stroke-width="10" />
  <path d="M160 168H304L220 300H320" stroke="#EAF3FB" stroke-width="34" stroke-linecap="round" stroke-linejoin="round" />
  <path d="M336 168H272C257.64 168 246 179.64 246 194C246 208.36 257.64 220 272 220H298C316.23 220 331 234.77 331 253C331 271.23 316.23 286 298 286H226" stroke="#4A9FD4" stroke-width="34" stroke-linecap="round" stroke-linejoin="round" />
  <path d="M152 340H360" stroke="#2A6DB5" stroke-width="14" stroke-linecap="round" opacity="0.9" />
  <circle cx="366" cy="150" r="8" fill="#4A9FD4" />
  <circle cx="140" cy="342" r="8" fill="#4A9FD4" />
</svg>
